<svg xmlns="http://www.w3.org/2000/svg" xmlns:xlink="http://www.w3.org/1999/xlink" width="77" zoomAndPan="magnify" viewBox="0 0 57.75 57.749998" height="77" preserveAspectRatio="xMidYMid meet" version="1.0"><defs><clipPath id="0460d560d2"><path d="M 1 4.695312 L 57.5 4.695312 L 57.5 52.488281 L 1 52.488281 Z M 1 4.695312 " clip-rule="nonzero"/></clipPath></defs><g clip-path="url(#0460d560d2)"><path fill="#0a97e7" d="M 5.066406 19.800781 L 5.066406 30.265625 C 5.066406 30.527344 5.015625 30.777344 4.914062 31.015625 C 4.816406 31.257812 4.675781 31.46875 4.492188 31.652344 C 4.304688 31.835938 4.09375 31.980469 3.855469 32.078125 C 3.613281 32.179688 3.363281 32.226562 3.101562 32.226562 C 2.84375 32.226562 2.59375 32.179688 2.351562 32.078125 C 2.113281 31.980469 1.898438 31.835938 1.714844 31.652344 C 1.53125 31.46875 1.390625 31.257812 1.289062 31.015625 C 1.191406 30.777344 1.140625 30.527344 1.140625 30.265625 L 1.140625 19.800781 C 1.140625 19.542969 1.191406 19.292969 1.289062 19.050781 C 1.390625 18.8125 1.53125 18.597656 1.714844 18.414062 C 1.898438 18.230469 2.113281 18.089844 2.351562 17.988281 C 2.59375 17.890625 2.84375 17.839844 3.101562 17.839844 C 3.363281 17.839844 3.613281 17.890625 3.855469 17.988281 C 4.09375 18.089844 4.304688 18.230469 4.492188 18.414062 C 4.675781 18.597656 4.816406 18.8125 4.914062 19.050781 C 5.015625 19.292969 5.066406 19.542969 5.066406 19.800781 Z M 55.417969 17.839844 C 55.160156 17.839844 54.910156 17.890625 54.667969 17.988281 C 54.429688 18.089844 54.214844 18.230469 54.03125 18.414062 C 53.847656 18.597656 53.707031 18.8125 53.605469 19.050781 C 53.507812 19.292969 53.457031 19.542969 53.457031 19.800781 L 53.457031 30.265625 C 53.457031 30.527344 53.507812 30.777344 53.605469 31.015625 C 53.707031 31.257812 53.847656 31.46875 54.03125 31.652344 C 54.214844 31.835938 54.429688 31.980469 54.667969 32.078125 C 54.910156 32.179688 55.160156 32.226562 55.417969 32.226562 C 55.679688 32.226562 55.929688 32.179688 56.171875 32.078125 C 56.410156 31.980469 56.625 31.835938 56.808594 31.652344 C 56.992188 31.46875 57.132812 31.257812 57.234375 31.015625 C 57.332031 30.777344 57.382812 30.527344 57.382812 30.265625 L 57.382812 19.800781 C 57.382812 19.542969 57.332031 19.292969 57.234375 19.050781 C 57.132812 18.8125 56.992188 18.597656 56.808594 18.414062 C 56.625 18.230469 56.410156 18.089844 56.171875 17.988281 C 55.929688 17.890625 55.679688 17.839844 55.417969 17.839844 Z M 10.949219 40.730469 C 10.949219 41.074219 10.984375 41.414062 11.050781 41.75 C 11.117188 42.085938 11.21875 42.414062 11.347656 42.730469 C 11.480469 43.050781 11.640625 43.351562 11.832031 43.636719 C 12.023438 43.921875 12.238281 44.1875 12.484375 44.429688 C 12.726562 44.671875 12.988281 44.886719 13.277344 45.078125 C 13.5625 45.269531 13.863281 45.429688 14.179688 45.5625 C 14.496094 45.695312 14.824219 45.792969 15.160156 45.859375 C 15.5 45.925781 15.839844 45.960938 16.183594 45.960938 L 22.628906 45.960938 C 23.066406 45.960938 23.480469 46.0625 23.863281 46.269531 C 24.25 46.476562 24.5625 46.761719 24.804688 47.125 L 28.171875 52.175781 C 28.292969 52.359375 28.453125 52.5 28.644531 52.605469 C 28.835938 52.707031 29.042969 52.757812 29.261719 52.757812 C 29.480469 52.757812 29.6875 52.707031 29.878906 52.605469 C 30.070312 52.5 30.226562 52.359375 30.351562 52.175781 L 33.714844 47.125 C 33.960938 46.761719 34.273438 46.476562 34.660156 46.269531 C 35.042969 46.0625 35.457031 45.960938 35.894531 45.960938 L 42.339844 45.960938 C 42.683594 45.960938 43.023438 45.925781 43.363281 45.859375 C 43.699219 45.792969 44.027344 45.695312 44.34375 45.5625 C 44.660156 45.429688 44.960938 45.269531 45.246094 45.078125 C 45.53125 44.886719 45.796875 44.671875 46.039062 44.429688 C 46.28125 44.1875 46.5 43.921875 46.691406 43.636719 C 46.882812 43.351562 47.042969 43.050781 47.175781 42.730469 C 47.304688 42.414062 47.40625 42.085938 47.472656 41.75 C 47.539062 41.414062 47.574219 41.074219 47.574219 40.730469 L 47.574219 35.496094 L 10.949219 35.496094 Z M 47.574219 17.1875 L 47.574219 31.574219 L 10.949219 31.574219 L 10.949219 17.1875 C 10.949219 16.84375 10.984375 16.503906 11.050781 16.167969 C 11.117188 15.828125 11.21875 15.503906 11.347656 15.183594 C 11.480469 14.867188 11.640625 14.566406 11.832031 14.28125 C 12.023438 13.996094 12.238281 13.730469 12.484375 13.488281 C 12.726562 13.246094 12.988281 13.027344 13.277344 12.835938 C 13.5625 12.644531 13.863281 12.484375 14.179688 12.351562 C 14.496094 12.222656 14.824219 12.121094 15.160156 12.054688 C 15.5 11.988281 15.839844 11.957031 16.183594 11.957031 L 27.300781 11.957031 L 27.300781 6.722656 C 27.300781 6.464844 27.347656 6.214844 27.449219 5.972656 C 27.546875 5.730469 27.691406 5.519531 27.875 5.335938 C 28.058594 5.152344 28.269531 5.011719 28.511719 4.910156 C 28.75 4.8125 29 4.761719 29.261719 4.761719 C 29.523438 4.761719 29.773438 4.8125 30.011719 4.910156 C 30.253906 5.011719 30.464844 5.152344 30.648438 5.335938 C 30.832031 5.519531 30.972656 5.730469 31.074219 5.972656 C 31.171875 6.214844 31.222656 6.464844 31.222656 6.722656 L 31.222656 11.957031 L 42.339844 11.957031 C 42.683594 11.957031 43.023438 11.988281 43.363281 12.054688 C 43.699219 12.121094 44.027344 12.222656 44.34375 12.351562 C 44.660156 12.484375 44.960938 12.644531 45.246094 12.835938 C 45.53125 13.027344 45.796875 13.246094 46.039062 13.488281 C 46.28125 13.730469 46.5 13.996094 46.691406 14.28125 C 46.882812 14.566406 47.042969 14.867188 47.175781 15.183594 C 47.304688 15.503906 47.40625 15.828125 47.472656 16.167969 C 47.539062 16.503906 47.574219 16.84375 47.574219 17.1875 Z M 24.03125 25.035156 C 24.03125 24.6875 23.964844 24.355469 23.832031 24.035156 C 23.699219 23.710938 23.507812 23.429688 23.261719 23.183594 C 23.019531 22.9375 22.734375 22.75 22.414062 22.617188 C 22.09375 22.484375 21.761719 22.417969 21.414062 22.417969 C 21.066406 22.417969 20.734375 22.484375 20.414062 22.617188 C 20.09375 22.75 19.808594 22.9375 19.5625 23.183594 C 19.320312 23.429688 19.128906 23.710938 18.996094 24.035156 C 18.863281 24.355469 18.796875 24.6875 18.796875 25.035156 C 18.796875 25.382812 18.863281 25.714844 18.996094 26.035156 C 19.128906 26.355469 19.320312 26.640625 19.5625 26.882812 C 19.808594 27.128906 20.09375 27.320312 20.414062 27.449219 C 20.734375 27.582031 21.066406 27.648438 21.414062 27.648438 C 21.761719 27.648438 22.09375 27.582031 22.414062 27.449219 C 22.734375 27.320312 23.019531 27.128906 23.261719 26.882812 C 23.507812 26.640625 23.699219 26.355469 23.832031 26.035156 C 23.964844 25.714844 24.03125 25.382812 24.03125 25.035156 Z M 39.726562 25.035156 C 39.726562 24.6875 39.660156 24.355469 39.527344 24.035156 C 39.394531 23.710938 39.203125 23.429688 38.957031 23.183594 C 38.714844 22.9375 38.429688 22.75 38.109375 22.617188 C 37.789062 22.484375 37.457031 22.417969 37.109375 22.417969 C 36.761719 22.417969 36.429688 22.484375 36.109375 22.617188 C 35.789062 22.75 35.503906 22.9375 35.257812 23.183594 C 35.015625 23.429688 34.824219 23.710938 34.691406 24.035156 C 34.558594 24.355469 34.492188 24.6875 34.492188 25.035156 C 34.492188 25.382812 34.558594 25.714844 34.691406 26.035156 C 34.824219 26.355469 35.015625 26.640625 35.257812 26.882812 C 35.503906 27.128906 35.789062 27.320312 36.109375 27.449219 C 36.429688 27.582031 36.761719 27.648438 37.109375 27.648438 C 37.457031 27.648438 37.789062 27.582031 38.109375 27.449219 C 38.429688 27.320312 38.714844 27.128906 38.957031 26.882812 C 39.203125 26.640625 39.394531 26.355469 39.527344 26.035156 C 39.660156 25.714844 39.726562 25.382812 39.726562 25.035156 Z M 39.726562 25.035156 " fill-opacity="1" fill-rule="nonzero"/></g></svg>