<svg xmlns="http://www.w3.org/2000/svg" xmlns:xlink="http://www.w3.org/1999/xlink" width="255" zoomAndPan="magnify" viewBox="0 0 191.25 47.25" height="63" preserveAspectRatio="xMidYMid meet" version="1.0"><defs><g/><clipPath id="298fd4d877"><path d="M 6 13.292969 L 30 13.292969 L 30 33.226562 L 6 33.226562 Z M 6 13.292969 " clip-rule="nonzero"/></clipPath></defs><g clip-path="url(#298fd4d877)"><path fill="#0a97e7" d="M 7.871094 19.546875 L 7.871094 23.875 C 7.871094 24.101562 7.792969 24.292969 7.632812 24.449219 C 7.476562 24.609375 7.285156 24.6875 7.058594 24.6875 C 6.835938 24.6875 6.644531 24.609375 6.484375 24.449219 C 6.328125 24.292969 6.246094 24.101562 6.246094 23.875 L 6.246094 19.546875 C 6.246094 19.320312 6.328125 19.128906 6.484375 18.972656 C 6.644531 18.8125 6.835938 18.734375 7.058594 18.734375 C 7.285156 18.734375 7.476562 18.8125 7.632812 18.972656 C 7.792969 19.128906 7.871094 19.320312 7.871094 19.546875 Z M 28.714844 18.734375 C 28.488281 18.734375 28.296875 18.8125 28.140625 18.972656 C 27.980469 19.128906 27.902344 19.320312 27.902344 19.546875 L 27.902344 23.875 C 27.902344 24.101562 27.980469 24.292969 28.140625 24.449219 C 28.296875 24.609375 28.488281 24.6875 28.714844 24.6875 C 28.9375 24.6875 29.128906 24.609375 29.289062 24.449219 C 29.445312 24.292969 29.527344 24.101562 29.527344 23.875 L 29.527344 19.546875 C 29.527344 19.320312 29.445312 19.128906 29.289062 18.972656 C 29.128906 18.8125 28.9375 18.734375 28.714844 18.734375 Z M 10.308594 28.207031 C 10.308594 28.496094 10.363281 28.769531 10.472656 29.035156 C 10.582031 29.300781 10.738281 29.535156 10.941406 29.738281 C 11.144531 29.941406 11.378906 30.097656 11.644531 30.207031 C 11.910156 30.316406 12.1875 30.371094 12.472656 30.371094 L 15.140625 30.371094 C 15.527344 30.371094 15.828125 30.535156 16.042969 30.855469 L 17.4375 32.945312 C 17.484375 33.019531 17.550781 33.078125 17.632812 33.121094 C 17.710938 33.164062 17.796875 33.1875 17.886719 33.1875 C 17.976562 33.1875 18.0625 33.164062 18.140625 33.121094 C 18.222656 33.078125 18.285156 33.019531 18.335938 32.945312 L 19.730469 30.855469 C 19.945312 30.535156 20.246094 30.371094 20.632812 30.371094 L 23.300781 30.371094 C 23.585938 30.371094 23.863281 30.316406 24.128906 30.207031 C 24.394531 30.097656 24.628906 29.941406 24.832031 29.738281 C 25.035156 29.535156 25.191406 29.300781 25.300781 29.035156 C 25.410156 28.769531 25.464844 28.496094 25.464844 28.207031 L 25.464844 26.042969 L 10.308594 26.042969 Z M 25.464844 18.460938 L 25.464844 24.417969 L 10.308594 24.417969 L 10.308594 18.460938 C 10.308594 18.175781 10.363281 17.898438 10.472656 17.632812 C 10.582031 17.367188 10.738281 17.132812 10.941406 16.929688 C 11.144531 16.730469 11.378906 16.570312 11.644531 16.460938 C 11.910156 16.351562 12.1875 16.296875 12.472656 16.296875 L 17.074219 16.296875 L 17.074219 14.132812 C 17.074219 13.90625 17.152344 13.714844 17.3125 13.558594 C 17.472656 13.398438 17.664062 13.320312 17.886719 13.320312 C 18.109375 13.320312 18.300781 13.398438 18.460938 13.558594 C 18.617188 13.714844 18.699219 13.90625 18.699219 14.132812 L 18.699219 16.296875 L 23.300781 16.296875 C 23.585938 16.296875 23.863281 16.351562 24.128906 16.460938 C 24.394531 16.570312 24.628906 16.730469 24.832031 16.929688 C 25.035156 17.132812 25.191406 17.367188 25.300781 17.632812 C 25.410156 17.898438 25.464844 18.175781 25.464844 18.460938 Z M 15.722656 21.710938 C 15.722656 21.566406 15.695312 21.429688 15.636719 21.296875 C 15.582031 21.164062 15.503906 21.046875 15.402344 20.945312 C 15.300781 20.84375 15.183594 20.765625 15.050781 20.710938 C 14.917969 20.65625 14.78125 20.628906 14.636719 20.628906 C 14.496094 20.628906 14.355469 20.65625 14.222656 20.710938 C 14.089844 20.765625 13.972656 20.84375 13.871094 20.945312 C 13.769531 21.046875 13.691406 21.164062 13.636719 21.296875 C 13.582031 21.429688 13.554688 21.566406 13.554688 21.710938 C 13.554688 21.855469 13.582031 21.992188 13.636719 22.125 C 13.691406 22.257812 13.769531 22.375 13.871094 22.476562 C 13.972656 22.578125 14.089844 22.65625 14.222656 22.710938 C 14.355469 22.765625 14.496094 22.792969 14.636719 22.792969 C 14.78125 22.792969 14.917969 22.765625 15.050781 22.710938 C 15.183594 22.65625 15.300781 22.578125 15.402344 22.476562 C 15.503906 22.375 15.582031 22.257812 15.636719 22.125 C 15.695312 21.992188 15.722656 21.855469 15.722656 21.710938 Z M 22.21875 21.710938 C 22.21875 21.566406 22.191406 21.429688 22.136719 21.296875 C 22.078125 21.164062 22 21.046875 21.898438 20.945312 C 21.796875 20.84375 21.679688 20.765625 21.550781 20.710938 C 21.417969 20.65625 21.277344 20.628906 21.132812 20.628906 C 20.992188 20.628906 20.851562 20.65625 20.71875 20.710938 C 20.585938 20.765625 20.46875 20.84375 20.367188 20.945312 C 20.265625 21.046875 20.1875 21.164062 20.132812 21.296875 C 20.078125 21.429688 20.050781 21.566406 20.050781 21.710938 C 20.050781 21.855469 20.078125 21.992188 20.132812 22.125 C 20.1875 22.257812 20.265625 22.375 20.367188 22.476562 C 20.46875 22.578125 20.585938 22.65625 20.71875 22.710938 C 20.851562 22.765625 20.992188 22.792969 21.132812 22.792969 C 21.277344 22.792969 21.417969 22.765625 21.550781 22.710938 C 21.679688 22.65625 21.796875 22.578125 21.898438 22.476562 C 22 22.375 22.078125 22.257812 22.136719 22.125 C 22.191406 21.992188 22.21875 21.855469 22.21875 21.710938 Z M 22.21875 21.710938 " fill-opacity="1" fill-rule="nonzero"/></g><g fill="#0a97e7" fill-opacity="1"><g transform="translate(36.186696, 30.344778)"><g><path d="M 10.4375 -13.1875 L 1.296875 -13.1875 L 1.296875 -15.796875 L 14.453125 -15.796875 L 14.453125 -13.640625 L 4.859375 -1.71875 L 14.546875 -1.71875 L 14.546875 0.9375 L 0.859375 0.9375 L 0.859375 -1.296875 Z M 10.4375 -13.1875 "/></g></g></g><g fill="#0a97e7" fill-opacity="1"><g transform="translate(51.184107, 30.344778)"><g><path d="M 4.71875 -15.796875 L 4.71875 -8.921875 L 12.859375 -8.921875 L 12.859375 -15.796875 L 15.8125 -15.796875 L 15.8125 0.9375 L 12.859375 0.9375 L 12.859375 -6.28125 L 4.71875 -6.28125 L 4.71875 0.9375 L 1.75 0.9375 L 1.75 -15.796875 Z M 4.71875 -15.796875 "/></g></g></g><g fill="#0a97e7" fill-opacity="1"><g transform="translate(68.311506, 30.344778)"><g><path d="M 3.578125 -15.796875 L 7.90625 -8.65625 L 7.953125 -8.65625 L 12.109375 -15.796875 L 15.59375 -15.796875 L 9.421875 -5.5625 L 9.421875 0.9375 L 6.4375 0.9375 L 6.4375 -5.5625 L 0.109375 -15.796875 Z M 3.578125 -15.796875 "/></g></g></g><g fill="#0a97e7" fill-opacity="1"><g transform="translate(83.550459, 30.344778)"><g/></g></g><g fill="#0a97e7" fill-opacity="1"><g transform="translate(90.906285, 30.344778)"><g><path d="M 6.8125 -15.796875 L 10.109375 -15.796875 L 16.671875 0.9375 L 13.5625 0.9375 L 12.03125 -2.984375 L 4.75 -2.984375 L 3.203125 0.9375 L 0.109375 0.9375 Z M 5.78125 -5.625 L 11.03125 -5.625 L 8.453125 -12.40625 L 8.4375 -12.40625 Z M 5.78125 -5.625 "/></g></g></g><g fill="#0a97e7" fill-opacity="1"><g transform="translate(107.221207, 30.344778)"><g><path d="M 4.75 -15.796875 L 4.75 0.9375 L 1.75 0.9375 L 1.75 -15.796875 Z M 4.75 -15.796875 "/></g></g></g><g fill="#0a97e7" fill-opacity="1"><g transform="translate(113.259516, 30.344778)"><g/></g></g><g fill="#0a97e7" fill-opacity="1"><g transform="translate(120.615344, 30.344778)"><g><path d="M 8.65625 -15.796875 C 9.675781 -15.796875 10.554688 -15.675781 11.296875 -15.4375 C 12.035156 -15.195312 12.644531 -14.863281 13.125 -14.4375 C 13.601562 -14.007812 13.953125 -13.5 14.171875 -12.90625 C 14.398438 -12.320312 14.515625 -11.695312 14.515625 -11.03125 C 14.515625 -10.71875 14.460938 -10.375 14.359375 -10 C 14.265625 -9.632812 14.109375 -9.265625 13.890625 -8.890625 C 13.671875 -8.523438 13.390625 -8.179688 13.046875 -7.859375 C 12.710938 -7.535156 12.316406 -7.273438 11.859375 -7.078125 L 11.859375 -7.046875 C 12.546875 -6.773438 13.09375 -6.347656 13.5 -5.765625 C 13.914062 -5.191406 14.160156 -4.4375 14.234375 -3.5 C 14.304688 -2.644531 14.429688 -1.84375 14.609375 -1.09375 C 14.796875 -0.351562 15.015625 0.320312 15.265625 0.9375 L 12.15625 0.9375 C 11.945312 0.519531 11.78125 0 11.65625 -0.625 C 11.539062 -1.257812 11.441406 -2.097656 11.359375 -3.140625 C 11.296875 -3.867188 11.039062 -4.484375 10.59375 -4.984375 C 10.15625 -5.484375 9.492188 -5.734375 8.609375 -5.734375 L 5.046875 -5.734375 L 5.046875 0.9375 L 2.09375 0.9375 L 2.09375 -15.796875 Z M 5.046875 -8.375 L 8.421875 -8.375 C 9.429688 -8.375 10.203125 -8.609375 10.734375 -9.078125 C 11.265625 -9.546875 11.53125 -10.128906 11.53125 -10.828125 C 11.53125 -11.546875 11.269531 -12.117188 10.75 -12.546875 C 10.226562 -12.972656 9.421875 -13.1875 8.328125 -13.1875 L 5.046875 -13.1875 Z M 5.046875 -8.375 "/></g></g></g><g fill="#0a97e7" fill-opacity="1"><g transform="translate(136.183684, 30.344778)"><g><path d="M 0.96875 -5.234375 C 0.96875 -6.066406 1.09375 -6.875 1.34375 -7.65625 C 1.601562 -8.4375 1.988281 -9.128906 2.5 -9.734375 C 3.007812 -10.335938 3.648438 -10.816406 4.421875 -11.171875 C 5.191406 -11.523438 6.09375 -11.703125 7.125 -11.703125 C 8.144531 -11.703125 9.039062 -11.523438 9.8125 -11.171875 C 10.59375 -10.828125 11.234375 -10.351562 11.734375 -9.75 C 12.242188 -9.15625 12.625 -8.460938 12.875 -7.671875 C 13.132812 -6.890625 13.265625 -6.078125 13.265625 -5.234375 C 13.265625 -4.347656 13.132812 -3.507812 12.875 -2.71875 C 12.625 -1.925781 12.242188 -1.234375 11.734375 -0.640625 C 11.222656 -0.0546875 10.582031 0.410156 9.8125 0.765625 C 9.039062 1.128906 8.144531 1.3125 7.125 1.3125 C 6.09375 1.3125 5.191406 1.128906 4.421875 0.765625 C 3.648438 0.410156 3.007812 -0.0625 2.5 -0.65625 C 1.988281 -1.257812 1.601562 -1.957031 1.34375 -2.75 C 1.09375 -3.539062 0.96875 -4.367188 0.96875 -5.234375 Z M 3.859375 -5.234375 C 3.859375 -3.953125 4.144531 -2.953125 4.71875 -2.234375 C 5.289062 -1.523438 6.09375 -1.171875 7.125 -1.171875 C 8.15625 -1.171875 8.953125 -1.523438 9.515625 -2.234375 C 10.085938 -2.941406 10.375 -3.941406 10.375 -5.234375 C 10.375 -6.503906 10.070312 -7.484375 9.46875 -8.171875 C 8.863281 -8.859375 8.082031 -9.203125 7.125 -9.203125 C 6.164062 -9.203125 5.378906 -8.851562 4.765625 -8.15625 C 4.160156 -7.46875 3.859375 -6.492188 3.859375 -5.234375 Z M 3.859375 -5.234375 "/></g></g></g><g fill="#0a97e7" fill-opacity="1"><g transform="translate(149.973376, 30.344778)"><g><path d="M 4.28125 -15.796875 L 4.28125 -10.234375 C 4.84375 -10.742188 5.429688 -11.113281 6.046875 -11.34375 C 6.660156 -11.582031 7.273438 -11.703125 7.890625 -11.703125 C 8.828125 -11.703125 9.640625 -11.539062 10.328125 -11.21875 C 11.015625 -10.90625 11.582031 -10.457031 12.03125 -9.875 C 12.488281 -9.289062 12.828125 -8.59375 13.046875 -7.78125 C 13.265625 -6.96875 13.375 -6.082031 13.375 -5.125 C 13.375 -4.132812 13.257812 -3.242188 13.03125 -2.453125 C 12.8125 -1.671875 12.46875 -1 12 -0.4375 C 11.539062 0.113281 10.957031 0.539062 10.25 0.84375 C 9.550781 1.15625 8.726562 1.3125 7.78125 1.3125 C 7.164062 1.3125 6.554688 1.207031 5.953125 1 C 5.347656 0.789062 4.789062 0.472656 4.28125 0.046875 L 4.28125 0.9375 L 1.390625 0.9375 L 1.390625 -15.796875 Z M 7.359375 -9.203125 C 6.785156 -9.203125 6.234375 -9.070312 5.703125 -8.8125 C 5.179688 -8.550781 4.707031 -8.207031 4.28125 -7.78125 L 4.28125 -2.34375 C 4.695312 -2 5.160156 -1.71875 5.671875 -1.5 C 6.191406 -1.28125 6.753906 -1.171875 7.359375 -1.171875 C 7.898438 -1.171875 8.367188 -1.28125 8.765625 -1.5 C 9.160156 -1.71875 9.484375 -2.003906 9.734375 -2.359375 C 9.984375 -2.722656 10.171875 -3.140625 10.296875 -3.609375 C 10.421875 -4.085938 10.484375 -4.59375 10.484375 -5.125 C 10.484375 -5.644531 10.425781 -6.148438 10.3125 -6.640625 C 10.207031 -7.128906 10.03125 -7.566406 9.78125 -7.953125 C 9.53125 -8.335938 9.207031 -8.640625 8.8125 -8.859375 C 8.414062 -9.085938 7.929688 -9.203125 7.359375 -9.203125 Z M 7.359375 -9.203125 "/></g></g></g><g fill="#0a97e7" fill-opacity="1"><g transform="translate(163.894825, 30.344778)"><g><path d="M 0.96875 -5.234375 C 0.96875 -6.066406 1.09375 -6.875 1.34375 -7.65625 C 1.601562 -8.4375 1.988281 -9.128906 2.5 -9.734375 C 3.007812 -10.335938 3.648438 -10.816406 4.421875 -11.171875 C 5.191406 -11.523438 6.09375 -11.703125 7.125 -11.703125 C 8.144531 -11.703125 9.039062 -11.523438 9.8125 -11.171875 C 10.59375 -10.828125 11.234375 -10.351562 11.734375 -9.75 C 12.242188 -9.15625 12.625 -8.460938 12.875 -7.671875 C 13.132812 -6.890625 13.265625 -6.078125 13.265625 -5.234375 C 13.265625 -4.347656 13.132812 -3.507812 12.875 -2.71875 C 12.625 -1.925781 12.242188 -1.234375 11.734375 -0.640625 C 11.222656 -0.0546875 10.582031 0.410156 9.8125 0.765625 C 9.039062 1.128906 8.144531 1.3125 7.125 1.3125 C 6.09375 1.3125 5.191406 1.128906 4.421875 0.765625 C 3.648438 0.410156 3.007812 -0.0625 2.5 -0.65625 C 1.988281 -1.257812 1.601562 -1.957031 1.34375 -2.75 C 1.09375 -3.539062 0.96875 -4.367188 0.96875 -5.234375 Z M 3.859375 -5.234375 C 3.859375 -3.953125 4.144531 -2.953125 4.71875 -2.234375 C 5.289062 -1.523438 6.09375 -1.171875 7.125 -1.171875 C 8.15625 -1.171875 8.953125 -1.523438 9.515625 -2.234375 C 10.085938 -2.941406 10.375 -3.941406 10.375 -5.234375 C 10.375 -6.503906 10.070312 -7.484375 9.46875 -8.171875 C 8.863281 -8.859375 8.082031 -9.203125 7.125 -9.203125 C 6.164062 -9.203125 5.378906 -8.851562 4.765625 -8.15625 C 4.160156 -7.46875 3.859375 -6.492188 3.859375 -5.234375 Z M 3.859375 -5.234375 "/></g></g></g><g fill="#0a97e7" fill-opacity="1"><g transform="translate(177.684518, 30.344778)"><g><path d="M 2.4375 -11.25 L 2.4375 -14.546875 L 5.3125 -14.546875 L 5.3125 -11.25 L 8.265625 -11.25 L 8.265625 -8.890625 L 5.3125 -8.890625 L 5.3125 -2.265625 C 5.3125 -1.804688 5.460938 -1.507812 5.765625 -1.375 C 6.078125 -1.238281 6.46875 -1.171875 6.9375 -1.171875 C 7.425781 -1.171875 7.859375 -1.265625 8.234375 -1.453125 L 8.234375 0.875 C 7.828125 1.007812 7.40625 1.101562 6.96875 1.15625 C 6.539062 1.207031 6.109375 1.234375 5.671875 1.234375 C 5.203125 1.234375 4.769531 1.1875 4.375 1.09375 C 3.988281 1.007812 3.648438 0.863281 3.359375 0.65625 C 3.066406 0.445312 2.835938 0.175781 2.671875 -0.15625 C 2.515625 -0.488281 2.4375 -0.921875 2.4375 -1.453125 L 2.4375 -8.890625 L 0.203125 -8.890625 L 0.203125 -11.25 Z M 2.4375 -11.25 "/></g></g></g><g fill="#0a97e7" fill-opacity="1"><g transform="translate(185.974442, 30.344778)"><g/></g></g></svg>